<svg xmlns="http://www.w3.org/2000/svg" xmlns:xlink="http://www.w3.org/1999/xlink" version="1.1" width="256" height="256" viewBox="0 0 256 256" xml:space="preserve">

<defs>
</defs>
<g style="stroke: none; stroke-width: 0; stroke-dasharray: none; stroke-linecap: butt; stroke-linejoin: miter; stroke-miterlimit: 10; fill: none; fill-rule: nonzero; opacity: 1;" transform="translate(1.4065934065934016 1.4065934065934016) scale(2.81 2.81)" >
	<path d="M 80.377 44.558 c -1.753 -3.045 0.873 -5.536 0.738 -8.027 c -0.146 -2.712 -1.531 -4.019 -3.575 -5.786 c -0.835 -0.72 -1.776 -1.303 -2.599 -2.037 c -0.979 -0.87 -1.331 -1.962 -1.633 -3.2 c -0.527 -2.155 -0.608 -4.347 -2.125 -6.106 c -1.832 -2.123 -4.885 -1.763 -7.367 -1.604 c -1.42 0.09 -2.712 -0.011 -3.959 -0.747 c -1.039 -0.615 -1.834 -1.628 -2.658 -2.488 c -1.665 -1.731 -3.666 -2.868 -6.136 -2.599 c -1.255 0.137 -2.455 0.579 -3.67 0.898 c -0.745 0.198 -1.491 0.148 -2.239 0.11 c -0.431 -0.154 -0.859 -0.317 -1.286 -0.469 c -1.983 -0.707 -4.218 -1.176 -6.23 -0.298 c -1.887 0.822 -3.13 2.624 -4.795 3.788 c -0.874 0.611 -2.005 0.48 -3.012 0.467 c -1.12 -0.015 -2.273 0.075 -3.365 0.334 c -3.745 0.891 -4.705 4.775 -7.001 7.325 c -1.161 1.288 -3.044 1.626 -4.484 2.481 c -0.484 0.287 -0.926 0.604 -1.311 0.96 c -1.964 1.037 -2.309 4.287 -2.355 6.466 c -0.028 1.446 0.153 3.055 -0.313 4.45 c -0.235 0.709 -1.242 1.624 -1.793 2.247 c -0.773 0.879 -1.547 1.763 -2.151 2.768 c -1.292 2.155 -0.91 4.591 0.264 6.697 c 0.615 1.101 1.382 2.091 1.761 3.31 c 0.452 1.457 -0.432 2.916 -0.981 4.227 c -0.555 1.328 -0.747 2.742 -0.608 4.135 c -0.107 1.497 0.291 2.924 1.313 4.214 c 1.626 2.055 3.961 3.258 5.249 5.622 c 1.157 2.119 1.455 4.538 3.212 6.318 c 1.791 1.817 4.488 2.08 6.607 3.325 c 2.05 1.206 3.049 3.938 4.615 5.662 c 1.896 2.086 4.568 2.824 7.278 2.209 c 1.498 -0.338 2.864 -0.97 4.404 -1.138 c 1.722 -0.188 3.39 0.037 5.024 0.598 c 2.228 0.764 4.566 1.439 6.946 1.319 c 2.648 -0.133 5.294 -1.643 6.391 -4.079 c 0.502 -0.198 1.024 -0.351 1.536 -0.499 c 1.424 -0.414 2.841 -0.818 4.289 -1.142 c 1.302 -0.291 2.331 -0.705 3.289 -1.74 c 1.587 -1.716 1.761 -4.227 3.513 -5.849 c 0.726 -0.675 1.77 -0.953 2.697 -1.213 c 1.165 -0.326 2.327 -1.045 3.269 -1.787 c 1.684 -1.326 2.763 -3.177 3.124 -5.285 c 0.193 -1.125 0.184 -2.256 0.064 -3.388 c -0.086 -0.812 -0.489 -4.3 0.618 -5.407 c 2.117 -2.117 2.768 -4.522 2.816 -6.324 C 83.828 50.222 81.797 47.023 80.377 44.558 z M 59.785 38.293 c 0.293 0.793 0.249 1.718 0.063 2.519 c -0.197 0.848 -0.523 1.621 -0.443 2.506 c 0.09 0.989 0.691 1.749 1.358 2.472 c 1.079 1.168 2.599 2.226 2.287 3.984 c -0.232 1.304 -1.448 2.333 -2.078 3.473 c -0.818 1.482 -0.802 2.189 -0.344 3.743 c 0.121 0.41 2.728 3.941 -1.19 5.912 c -0.828 0.417 -1.918 0.276 -2.835 0.392 c -0.827 0.106 -1.626 0.447 -2.301 0.903 c -1.035 0.701 -1.714 1.723 -2.411 2.705 c -0.633 0.892 -1.358 1.696 -2.565 1.789 c -1.869 0.144 -3.281 -1.161 -5.053 -1.437 c -2.031 -0.317 -3.788 0.86 -5.716 1.177 c -0.926 0.153 -1.648 -0.3 -2.724 -1.993 c -1.203 -1.892 -2.912 -2.66 -4.81 -3.757 c -0.822 -0.475 -1.715 -1.087 -1.552 -2.094 c 0.167 -1.029 0.607 -2.002 0.744 -3.042 c 0.298 -2.263 -0.961 -4.015 -2.333 -5.749 c -0.644 -0.813 -1.27 -1.654 -1.209 -2.708 c 0.055 -0.91 1.033 -1.63 1.65 -2.222 c 0.684 -0.655 1.214 -1.381 1.513 -2.261 c 0.347 -1.019 -0.047 -2.14 -0.315 -3.129 c -0.238 -0.878 -0.222 -1.802 0.634 -2.36 c 0.771 -0.503 1.752 -0.674 2.597 -1.033 c 1.842 -0.783 2.096 -2.423 3.139 -3.866 c 1.397 -1.932 3.383 -0.698 4.179 -0.591 c 1.128 0.151 2.21 0.048 3.269 -0.35 c 1.231 -0.461 2.307 -1.227 3.528 -1.697 c 0.027 -0.01 0.053 -0.018 0.08 -0.028 c 0.835 -0.471 1.694 -0.473 2.624 0.446 c 0.926 0.623 2.346 2.602 2.346 2.602 C 54.346 38.04 56.807 35.757 59.785 38.293 z" style="stroke: none; stroke-width: 1; stroke-dasharray: none; stroke-linecap: butt; stroke-linejoin: miter; stroke-miterlimit: 10; fill: rgb(9,137,66); fill-rule: nonzero; opacity: 1;" transform=" matrix(1 0 0 1 0 0) " stroke-linecap="round" />
	<path d="M 16.057 52.342 c 0 -18.202 11.323 -33.76 27.309 -40.014 c -1.853 -0.604 -3.884 -0.931 -5.727 -0.126 c -1.887 0.822 -3.13 2.624 -4.795 3.788 c -0.874 0.611 -2.005 0.48 -3.012 0.467 c -1.12 -0.015 -2.273 0.075 -3.365 0.334 c -3.745 0.891 -4.705 4.775 -7.001 7.325 c -1.161 1.288 -3.044 1.626 -4.484 2.481 c -0.484 0.287 -0.926 0.604 -1.311 0.96 c -1.964 1.037 -2.309 4.287 -2.355 6.466 c -0.028 1.446 0.153 3.055 -0.313 4.45 c -0.235 0.709 -1.242 1.624 -1.793 2.247 c -0.773 0.879 -1.547 1.763 -2.151 2.768 c -1.292 2.155 -0.91 4.591 0.264 6.697 c 0.615 1.101 1.382 2.091 1.761 3.31 c 0.452 1.457 -0.432 2.916 -0.981 4.227 c -0.555 1.328 -0.747 2.742 -0.608 4.135 c -0.107 1.497 0.291 2.924 1.313 4.214 c 1.626 2.055 3.961 3.258 5.249 5.622 c 1.157 2.119 1.455 4.538 3.212 6.318 c 1.791 1.817 4.488 2.08 6.607 3.325 c 2.05 1.206 3.049 3.938 4.615 5.662 c 1.896 2.086 4.568 2.824 7.278 2.209 c 0.281 -0.063 0.557 -0.137 0.831 -0.217 C 24.277 81.439 16.057 67.851 16.057 52.342 z" style="stroke: none; stroke-width: 1; stroke-dasharray: none; stroke-linecap: butt; stroke-linejoin: miter; stroke-miterlimit: 10; fill: rgb(9,129,62); fill-rule: nonzero; opacity: 1;" transform=" matrix(1 0 0 1 0 0) " stroke-linecap="round" />
	<path d="M 59.438 62.901 c -0.828 0.417 -1.918 0.276 -2.835 0.392 c -0.827 0.106 -1.626 0.447 -2.301 0.903 c -1.035 0.701 -1.714 1.723 -2.411 2.705 c -0.633 0.892 -1.358 1.696 -2.565 1.789 c -1.869 0.144 -3.281 -1.161 -5.053 -1.437 c -1.767 -0.276 -3.328 0.58 -4.974 1.015 c 2.532 1.183 5.356 1.846 8.336 1.846 c 10.886 0 19.712 -8.825 19.712 -19.712 S 58.52 30.69 47.634 30.69 c -3.459 0 -6.71 0.892 -9.536 2.458 c 0.813 0.058 1.555 0.422 1.971 0.478 c 1.128 0.151 2.21 0.048 3.269 -0.35 c 1.231 -0.461 2.307 -1.227 3.528 -1.697 c 0.027 -0.01 0.053 -0.018 0.08 -0.028 c 0.835 -0.471 1.694 -0.473 2.624 0.446 c 0.926 0.623 2.346 2.602 2.346 2.602 c 2.43 3.44 4.891 1.157 7.869 3.693 c 0.293 0.793 0.249 1.718 0.063 2.519 c -0.197 0.848 -0.523 1.621 -0.443 2.506 c 0.09 0.989 0.691 1.749 1.358 2.472 c 1.079 1.168 2.599 2.226 2.287 3.984 c -0.232 1.304 -1.448 2.333 -2.078 3.473 c -0.818 1.482 -0.802 2.189 -0.344 3.743 C 60.749 57.399 63.356 60.93 59.438 62.901 z" style="stroke: none; stroke-width: 1; stroke-dasharray: none; stroke-linecap: butt; stroke-linejoin: miter; stroke-miterlimit: 10; fill: rgb(9,129,62); fill-rule: nonzero; opacity: 1;" transform=" matrix(1 0 0 1 0 0) " stroke-linecap="round" />
	<circle cx="16.854" cy="33.084" r="2.674" style="stroke: none; stroke-width: 1; stroke-dasharray: none; stroke-linecap: butt; stroke-linejoin: miter; stroke-miterlimit: 10; fill: rgb(228,32,50); fill-rule: nonzero; opacity: 1;" transform="  matrix(1 0 0 1 0 0) "/>
	<circle cx="23.424" cy="44.454" r="2.674" style="stroke: none; stroke-width: 1; stroke-dasharray: none; stroke-linecap: butt; stroke-linejoin: miter; stroke-miterlimit: 10; fill: rgb(239,167,51); fill-rule: nonzero; opacity: 1;" transform="  matrix(1 0 0 1 0 0) "/>
	<circle cx="13.054" cy="60.074" r="2.674" style="stroke: none; stroke-width: 1; stroke-dasharray: none; stroke-linecap: butt; stroke-linejoin: miter; stroke-miterlimit: 10; fill: rgb(228,32,50); fill-rule: nonzero; opacity: 1;" transform="  matrix(1 0 0 1 0 0) "/>
	<circle cx="29.344" cy="68.70400000000001" r="2.674" style="stroke: none; stroke-width: 1; stroke-dasharray: none; stroke-linecap: butt; stroke-linejoin: miter; stroke-miterlimit: 10; fill: rgb(228,32,50); fill-rule: nonzero; opacity: 1;" transform="  matrix(1 0 0 1 0 0) "/>
	<circle cx="36.594" cy="83.414" r="2.674" style="stroke: none; stroke-width: 1; stroke-dasharray: none; stroke-linecap: butt; stroke-linejoin: miter; stroke-miterlimit: 10; fill: rgb(239,167,51); fill-rule: nonzero; opacity: 1;" transform="  matrix(1 0 0 1 0 0) "/>
	<circle cx="50.064" cy="72.364" r="2.674" style="stroke: none; stroke-width: 1; stroke-dasharray: none; stroke-linecap: butt; stroke-linejoin: miter; stroke-miterlimit: 10; fill: rgb(228,32,50); fill-rule: nonzero; opacity: 1;" transform="  matrix(1 0 0 1 0 0) "/>
	<circle cx="63.094" cy="78.90400000000001" r="2.674" style="stroke: none; stroke-width: 1; stroke-dasharray: none; stroke-linecap: butt; stroke-linejoin: miter; stroke-miterlimit: 10; fill: rgb(228,32,50); fill-rule: nonzero; opacity: 1;" transform="  matrix(1 0 0 1 0 0) "/>
	<circle cx="65.76400000000001" cy="62.744" r="2.674" style="stroke: none; stroke-width: 1; stroke-dasharray: none; stroke-linecap: butt; stroke-linejoin: miter; stroke-miterlimit: 10; fill: rgb(239,167,51); fill-rule: nonzero; opacity: 1;" transform="  matrix(1 0 0 1 0 0) "/>
	<circle cx="77.644" cy="53.804" r="2.674" style="stroke: none; stroke-width: 1; stroke-dasharray: none; stroke-linecap: butt; stroke-linejoin: miter; stroke-miterlimit: 10; fill: rgb(228,32,50); fill-rule: nonzero; opacity: 1;" transform="  matrix(1 0 0 1 0 0) "/>
	<circle cx="66.664" cy="43.574" r="2.674" style="stroke: none; stroke-width: 1; stroke-dasharray: none; stroke-linecap: butt; stroke-linejoin: miter; stroke-miterlimit: 10; fill: rgb(228,32,50); fill-rule: nonzero; opacity: 1;" transform="  matrix(1 0 0 1 0 0) "/>
	<circle cx="72.29400000000001" cy="33.084" r="2.674" style="stroke: none; stroke-width: 1; stroke-dasharray: none; stroke-linecap: butt; stroke-linejoin: miter; stroke-miterlimit: 10; fill: rgb(239,167,51); fill-rule: nonzero; opacity: 1;" transform="  matrix(1 0 0 1 0 0) "/>
	<circle cx="45.604" cy="25.534" r="2.674" style="stroke: none; stroke-width: 1; stroke-dasharray: none; stroke-linecap: butt; stroke-linejoin: miter; stroke-miterlimit: 10; fill: rgb(239,167,51); fill-rule: nonzero; opacity: 1;" transform="  matrix(1 0 0 1 0 0) "/>
	<path d="M 42.972 9.576 c -7.481 -0.321 -14.691 4.886 -20.567 14.079 c 3.624 -1.32 6.527 -1.807 8.244 -0.924 c -0.773 2.528 0.045 5.879 1.878 9.756 c 4.07 -9.527 8.054 -16.444 11.852 -17.723 L 42.972 9.576 z" style="stroke: none; stroke-width: 1; stroke-dasharray: none; stroke-linecap: butt; stroke-linejoin: miter; stroke-miterlimit: 10; fill: rgb(204,22,41); fill-rule: nonzero; opacity: 1;" transform=" matrix(1 0 0 1 0 0) " stroke-linecap="round" />
	<path d="M 47.419 14.458 c 5.472 1.036 4.893 12.36 9.306 17.388 l 3.198 -6.015 c 2.107 1.981 4.628 3.121 7.671 3.199 c -6.513 -6.993 -8.436 -20.244 -20.459 -19.898 L 47.419 14.458 z" style="stroke: none; stroke-width: 1; stroke-dasharray: none; stroke-linecap: butt; stroke-linejoin: miter; stroke-miterlimit: 10; fill: rgb(204,22,41); fill-rule: nonzero; opacity: 1;" transform=" matrix(1 0 0 1 0 0) " stroke-linecap="round" />
	<path d="M 30.429 0 c -3.192 3.635 -5.235 7.604 -4.699 12.324 c 4.069 3.077 11.238 2.887 18.65 2.441 l -1.383 -5.19 C 39.652 4.486 35.348 1.552 30.429 0 z" style="stroke: none; stroke-width: 1; stroke-dasharray: none; stroke-linecap: butt; stroke-linejoin: miter; stroke-miterlimit: 10; fill: rgb(234,26,47); fill-rule: nonzero; opacity: 1;" transform=" matrix(1 0 0 1 0 0) " stroke-linecap="round" />
	<path d="M 59.58 0 c 3.192 3.635 5.235 7.604 4.699 12.324 c -4.069 3.077 -11.238 2.887 -18.65 2.441 l 1.383 -5.19 C 50.356 4.486 54.66 1.552 59.58 0 z" style="stroke: none; stroke-width: 1; stroke-dasharray: none; stroke-linecap: butt; stroke-linejoin: miter; stroke-miterlimit: 10; fill: rgb(234,26,47); fill-rule: nonzero; opacity: 1;" transform=" matrix(1 0 0 1 0 0) " stroke-linecap="round" />
	<path d="M 48.266 16.05 h -3.991 c -1.257 0 -2.275 -1.019 -2.275 -2.275 V 9.783 c 0 -1.257 1.019 -2.275 2.275 -2.275 h 3.991 c 1.257 0 2.275 1.019 2.275 2.275 v 3.991 C 50.541 15.031 49.522 16.05 48.266 16.05 z" style="stroke: none; stroke-width: 1; stroke-dasharray: none; stroke-linecap: butt; stroke-linejoin: miter; stroke-miterlimit: 10; fill: rgb(204,22,41); fill-rule: nonzero; opacity: 1;" transform=" matrix(1 0 0 1 0 0) " stroke-linecap="round" />
</g>
</svg>