<svg xmlns="http://www.w3.org/2000/svg" xmlns:xlink="http://www.w3.org/1999/xlink" version="1.1" width="256" height="256" viewBox="0 0 256 256" xml:space="preserve">

<defs>
</defs>
<g style="stroke: none; stroke-width: 0; stroke-dasharray: none; stroke-linecap: butt; stroke-linejoin: miter; stroke-miterlimit: 10; fill: none; fill-rule: nonzero; opacity: 1;" transform="translate(1.4065934065934016 1.4065934065934016) scale(2.81 2.81)" >
	<path d="M 34.884 88.111 H 6.762 C 3.043 88.111 0 85.068 0 81.349 v -0.815 c 0 -13.311 14.531 -17.899 19.134 -24.201 h 0 c 7.247 8.16 22.512 10.89 22.512 24.201 v 0.815 C 41.646 85.068 38.603 88.111 34.884 88.111 z" style="stroke: none; stroke-width: 1; stroke-dasharray: none; stroke-linecap: butt; stroke-linejoin: miter; stroke-miterlimit: 10; fill: rgb(171,17,33); fill-rule: nonzero; opacity: 1;" transform=" matrix(1 0 0 1 0 0) " stroke-linecap="round" />
	<path d="M 19.829 50.307 l -5.891 2.49 c -0.779 0.329 -1.147 1.236 -0.818 2.015 l 0.072 0.171 c 1.179 2.788 4.629 2.463 6.152 3.375 l 0 0 c 0.796 -2.351 3.752 -4.275 2.573 -7.063 l -0.072 -0.171 C 21.515 50.345 20.608 49.977 19.829 50.307 z" style="stroke: none; stroke-width: 1; stroke-dasharray: none; stroke-linecap: butt; stroke-linejoin: miter; stroke-miterlimit: 10; fill: rgb(171,17,33); fill-rule: nonzero; opacity: 1;" transform=" matrix(1 0 0 1 0 0) " stroke-linecap="round" />
	<path d="M 17.072 58.373 c -0.18 0 -0.334 -0.138 -0.35 -0.321 c -0.017 -0.193 0.127 -0.364 0.32 -0.38 c 1.325 -0.115 2.418 -0.456 3.246 -1.016 c 0.161 -0.109 0.379 -0.066 0.488 0.095 c 0.109 0.161 0.066 0.379 -0.095 0.488 c -0.929 0.627 -2.133 1.009 -3.579 1.134 C 17.093 58.373 17.083 58.373 17.072 58.373 z" style="stroke: none; stroke-width: 1; stroke-dasharray: none; stroke-linecap: butt; stroke-linejoin: miter; stroke-miterlimit: 10; fill: rgb(34,34,34); fill-rule: nonzero; opacity: 1;" transform=" matrix(1 0 0 1 0 0) " stroke-linecap="round" />
	<path d="M 18.175 59.758 c -0.04 0 -0.08 -0.007 -0.12 -0.021 c -0.183 -0.066 -0.277 -0.268 -0.211 -0.45 l 0.604 -1.667 c 0.043 -0.118 0.145 -0.204 0.269 -0.226 c 0.124 -0.023 0.25 0.024 0.331 0.119 l 1.037 1.231 c 0.125 0.148 0.106 0.37 -0.042 0.495 c -0.149 0.125 -0.37 0.106 -0.495 -0.042 l -0.645 -0.765 l -0.397 1.095 C 18.454 59.669 18.319 59.758 18.175 59.758 z" style="stroke: none; stroke-width: 1; stroke-dasharray: none; stroke-linecap: butt; stroke-linejoin: miter; stroke-miterlimit: 10; fill: rgb(34,34,34); fill-rule: nonzero; opacity: 1;" transform=" matrix(1 0 0 1 0 0) " stroke-linecap="round" />
	<path d="M 20.805 58.006 c -0.592 -0.534 -1.152 -1.089 -1.671 -1.673 h 0 c -0.075 0.103 -0.153 0.205 -0.234 0.307 C 19.535 57.093 20.171 57.548 20.805 58.006 z" style="stroke: none; stroke-width: 1; stroke-dasharray: none; stroke-linecap: butt; stroke-linejoin: miter; stroke-miterlimit: 10; fill: rgb(158,15,30); fill-rule: nonzero; opacity: 1;" transform=" matrix(1 0 0 1 0 0) " stroke-linecap="round" />
	<path d="M 25.221 61.362 c 5.21 4.268 9.393 9.258 9.393 16.633 v 0.913 c 0 4.166 -1.993 9.203 -7.575 7.575 c -8.005 -2.501 -16.664 -2.465 -25.673 -1.07 c 1.237 1.636 3.198 2.698 5.395 2.698 h 28.122 c 3.719 0 6.762 -3.043 6.762 -6.762 v -0.815 C 41.646 70.329 32.674 66.343 25.221 61.362 z" style="stroke: none; stroke-width: 1; stroke-dasharray: none; stroke-linecap: butt; stroke-linejoin: miter; stroke-miterlimit: 10; fill: rgb(158,15,30); fill-rule: nonzero; opacity: 1;" transform=" matrix(1 0 0 1 0 0) " stroke-linecap="round" />
	<path d="M 49.4 81.547 c -2.16 1.628 -3.837 3.272 -1.929 5.042 c 0.312 0.29 0.505 0.661 0.505 1.059 v 0.006 c 0 0.319 -0.297 0.578 -0.664 0.578 h -6.486 c -0.367 0 -0.664 -0.259 -0.664 -0.578 l 0 0 c 0 -0.282 0.235 -0.52 0.555 -0.57 c 6.326 -0.993 5.495 -3.411 1.912 -6.377 L 49.4 81.547 z" style="stroke: none; stroke-width: 1; stroke-dasharray: none; stroke-linecap: butt; stroke-linejoin: miter; stroke-miterlimit: 10; fill: rgb(34,34,34); fill-rule: nonzero; opacity: 1;" transform=" matrix(1 0 0 1 0 0) " stroke-linecap="round" />
	<ellipse cx="46.983000000000004" cy="73.346" rx="8.563" ry="8.546" style="stroke: none; stroke-width: 1; stroke-dasharray: none; stroke-linecap: butt; stroke-linejoin: miter; stroke-miterlimit: 10; fill: rgb(204,0,44); fill-rule: nonzero; opacity: 1;" transform=" matrix(1 0 0 1 0 0) "/>
	<ellipse cx="46.983000000000004" cy="73.346" rx="8.563" ry="8.546" style="stroke: none; stroke-width: 1; stroke-dasharray: none; stroke-linecap: butt; stroke-linejoin: miter; stroke-miterlimit: 10; fill: rgb(204,22,41); fill-rule: nonzero; opacity: 1;" transform=" matrix(1 0 0 1 0 0) "/>
	<path d="M 58.974 81.547 c 2.237 1.685 3.956 3.389 1.713 5.231 c -0.189 0.155 -0.289 0.377 -0.289 0.603 l 0 0 c 0 0.47 0.438 0.851 0.978 0.851 h 6.172 c 0.367 0 0.664 -0.259 0.664 -0.578 l 0 0 c 0 -0.282 -0.235 -0.52 -0.555 -0.57 c -6.326 -0.993 -5.495 -3.411 -1.912 -6.377 L 58.974 81.547 z" style="stroke: none; stroke-width: 1; stroke-dasharray: none; stroke-linecap: butt; stroke-linejoin: miter; stroke-miterlimit: 10; fill: rgb(34,34,34); fill-rule: nonzero; opacity: 1;" transform=" matrix(1 0 0 1 0 0) " stroke-linecap="round" />
	<ellipse cx="61.393" cy="73.346" rx="8.563" ry="8.546" style="stroke: none; stroke-width: 1; stroke-dasharray: none; stroke-linecap: butt; stroke-linejoin: miter; stroke-miterlimit: 10; fill: rgb(204,22,41); fill-rule: nonzero; opacity: 1;" transform=" matrix(1 0 0 1 0 0) "/>
	<path d="M 56.697 75.618 h -5.021 l 0.011 4.866 c 1.674 -1.151 3.292 -1.164 4.965 -0.015 L 56.697 75.618 z" style="stroke: none; stroke-width: 1; stroke-dasharray: none; stroke-linecap: butt; stroke-linejoin: miter; stroke-miterlimit: 10; fill: rgb(204,22,41); fill-rule: nonzero; opacity: 1;" transform=" matrix(1 0 0 1 0 0) " stroke-linecap="round" />
	<path d="M 38.637 71.767 L 37.75 73.59 c -0.64 1.314 0.096 2.882 1.528 3.243 c 9.94 2.502 19.879 2.503 29.819 0.003 c 1.436 -0.361 2.171 -1.937 1.523 -3.252 l -0.987 -2.003 L 38.637 71.767 z" style="stroke: none; stroke-width: 1; stroke-dasharray: none; stroke-linecap: butt; stroke-linejoin: miter; stroke-miterlimit: 10; fill: rgb(234,26,47); fill-rule: nonzero; opacity: 1;" transform=" matrix(1 0 0 1 0 0) " stroke-linecap="round" />
	<path d="M 54.187 76.255 c -6.379 0 -12.129 -0.986 -15.768 -5.374 c -0.025 0.519 -0.011 1.045 0.077 1.585 c 3.808 4.125 9.423 4.897 15.69 4.897 c 6.262 0 11.872 -0.768 15.68 -4.886 c 0.092 -0.496 0.117 -1.031 0.088 -1.596 C 66.315 75.261 60.559 76.255 54.187 76.255 z" style="stroke: none; stroke-width: 1; stroke-dasharray: none; stroke-linecap: butt; stroke-linejoin: miter; stroke-miterlimit: 10; fill: rgb(34,34,34); fill-rule: nonzero; opacity: 1;" transform=" matrix(1 0 0 1 0 0) " stroke-linecap="round" />
	<path d="M 77.167 58.059 c 0 11.925 -10.288 17.914 -22.98 17.914 s -22.98 -5.988 -22.98 -17.914 s 10.288 -25.272 22.98 -25.272 S 77.167 46.134 77.167 58.059 z" style="stroke: none; stroke-width: 1; stroke-dasharray: none; stroke-linecap: butt; stroke-linejoin: miter; stroke-miterlimit: 10; fill: rgb(234,26,47); fill-rule: nonzero; opacity: 1;" transform=" matrix(1 0 0 1 0 0) " stroke-linecap="round" />
	<path d="M 32.803 67.444 l 5.33 -18.752 l -1.572 -7.268 c -5.186 8.171 -8.899 16.404 -9.759 24.756 L 32.803 67.444 z" style="stroke: none; stroke-width: 1; stroke-dasharray: none; stroke-linecap: butt; stroke-linejoin: miter; stroke-miterlimit: 10; fill: rgb(234,26,47); fill-rule: nonzero; opacity: 1;" transform=" matrix(1 0 0 1 0 0) " stroke-linecap="round" />
	<path d="M 32.387 70.554 l 1.174 -5.572 l -6.398 -1.348 l -1.174 5.572 c -0.372 1.767 0.758 3.501 2.525 3.873 h 0 C 30.281 73.451 32.015 72.321 32.387 70.554 z" style="stroke: none; stroke-width: 1; stroke-dasharray: none; stroke-linecap: butt; stroke-linejoin: miter; stroke-miterlimit: 10; fill: rgb(34,34,34); fill-rule: nonzero; opacity: 1;" transform=" matrix(1 0 0 1 0 0) " stroke-linecap="round" />
	<path d="M 31.591 69.482 l -1.539 -3.196 l 2.903 -1.398 l 1.539 3.196 c 0.386 0.802 0.049 1.764 -0.753 2.15 l 0 0 C 32.939 70.62 31.977 70.283 31.591 69.482 z" style="stroke: none; stroke-width: 1; stroke-dasharray: none; stroke-linecap: butt; stroke-linejoin: miter; stroke-miterlimit: 10; fill: rgb(34,34,34); fill-rule: nonzero; opacity: 1;" transform=" matrix(1 0 0 1 0 0) " stroke-linecap="round" />
	<path d="M 34.596 65.482 L 34.596 65.482 c 0.144 -0.681 -0.292 -1.35 -0.973 -1.493 l -6.129 -1.291 c -0.681 -0.144 -1.35 0.292 -1.493 0.974 l 0 0 c -0.144 0.681 0.292 1.35 0.973 1.493 l 6.129 1.291 C 33.784 66.599 34.452 66.163 34.596 65.482 z" style="stroke: none; stroke-width: 1; stroke-dasharray: none; stroke-linecap: butt; stroke-linejoin: miter; stroke-miterlimit: 10; fill: rgb(245,249,255); fill-rule: nonzero; opacity: 1;" transform=" matrix(1 0 0 1 0 0) " stroke-linecap="round" />
	<path d="M 70.974 29.586 C 72.457 5.521 51.552 14.204 47.776 5.361 c -3.172 6.562 7.176 6.045 -1.622 16.048 L 70.974 29.586 z" style="stroke: none; stroke-width: 1; stroke-dasharray: none; stroke-linecap: butt; stroke-linejoin: miter; stroke-miterlimit: 10; fill: rgb(234,26,47); fill-rule: nonzero; opacity: 1;" transform=" matrix(1 0 0 1 0 0) " stroke-linecap="round" />
	<ellipse cx="56.085" cy="33.357" rx="14.955" ry="13.617" style="stroke: none; stroke-width: 1; stroke-dasharray: none; stroke-linecap: butt; stroke-linejoin: miter; stroke-miterlimit: 10; fill: rgb(253,223,179); fill-rule: nonzero; opacity: 1;" transform=" matrix(0.3128 -0.9498 0.9498 0.3128 6.8599 76.1947) "/>
	<circle cx="47.63" cy="32.35" r="3.46" style="stroke: none; stroke-width: 1; stroke-dasharray: none; stroke-linecap: butt; stroke-linejoin: miter; stroke-miterlimit: 10; fill: rgb(247,172,139); fill-rule: nonzero; opacity: 1;" transform="  matrix(1 0 0 1 0 0) "/>
	<circle cx="63.35" cy="37.53" r="3.46" style="stroke: none; stroke-width: 1; stroke-dasharray: none; stroke-linecap: butt; stroke-linejoin: miter; stroke-miterlimit: 10; fill: rgb(247,172,139); fill-rule: nonzero; opacity: 1;" transform="  matrix(1 0 0 1 0 0) "/>
	<path d="M 71.19 56.404 c -0.021 -0.348 0.03 -0.697 0.168 -1.018 c 0.152 -0.355 0.29 -0.717 0.412 -1.089 c 1.474 -4.475 0.488 -9.286 -2.291 -13.432 c 0.488 -0.965 0.917 -1.982 1.269 -3.05 c 3.175 -9.638 -1.918 -16.103 -9.956 -18.751 s -15.976 -0.476 -19.151 9.161 c -0.353 1.071 -0.613 2.145 -0.794 3.213 c -4.695 1.684 -8.343 4.965 -9.816 9.437 c -0.122 0.371 -0.227 0.745 -0.316 1.12 c -0.08 0.34 -0.246 0.65 -0.47 0.918 c -0.451 0.539 -0.804 1.153 -1.03 1.838 c -1.381 4.193 1.15 5.825 1.421 6.157 c 0.496 0.606 0.605 1.419 0.358 2.162 c -0.001 0.004 -0.003 0.009 -0.004 0.013 c -1.184 3.593 0.547 5.984 2.035 7.229 c 0.893 0.748 1.458 1.809 1.658 2.957 c 0.688 3.949 3.908 7.6 8.544 9.128 s 9.396 0.505 12.296 -2.262 c 0.843 -0.804 1.928 -1.322 3.091 -1.393 c 1.937 -0.118 4.75 -1.011 5.933 -4.604 c 0.001 -0.004 0.003 -0.009 0.004 -0.013 c 0.243 -0.745 0.813 -1.333 1.573 -1.526 c 0.415 -0.105 3.421 0.086 4.802 -4.107 C 71.152 57.81 71.232 57.106 71.19 56.404 z M 56.005 33.609 c -4.584 -4.495 -14.49 1.271 -11.521 -6.387 c 4.729 -12.201 28.031 -4.524 24.583 8.099 C 66.902 43.243 62.363 32.719 56.005 33.609 z" style="stroke: none; stroke-width: 1; stroke-dasharray: none; stroke-linecap: butt; stroke-linejoin: miter; stroke-miterlimit: 10; fill: rgb(245,249,255); fill-rule: nonzero; opacity: 1;" transform=" matrix(1 0 0 1 0 0) " stroke-linecap="round" />
	<path d="M 57.015 39.545 c -0.377 1.144 -1.88 1.677 -3.357 1.19 s -2.369 -1.809 -1.993 -2.953 c 0.377 -1.144 2.264 -2.842 3.741 -2.355 C 56.883 35.914 57.392 38.4 57.015 39.545 z" style="stroke: none; stroke-width: 1; stroke-dasharray: none; stroke-linecap: butt; stroke-linejoin: miter; stroke-miterlimit: 10; fill: rgb(34,34,34); fill-rule: nonzero; opacity: 1;" transform=" matrix(1 0 0 1 0 0) " stroke-linecap="round" />
	<path d="M 54.975 36.735 c 1.044 5.297 5.623 6.697 10.503 5.493 c 0.72 -0.178 0.912 -1.116 0.318 -1.559 l -9.729 -7.247 l -12.132 0.045 c -0.741 0.003 -1.144 0.872 -0.671 1.443 C 46.473 38.779 50.987 40.374 54.975 36.735 z" style="stroke: none; stroke-width: 1; stroke-dasharray: none; stroke-linecap: butt; stroke-linejoin: miter; stroke-miterlimit: 10; fill: rgb(220,221,234); fill-rule: nonzero; opacity: 1;" transform=" matrix(1 0 0 1 0 0) " stroke-linecap="round" />
	<path d="M 55.359 35.57 c 1.044 5.297 5.623 6.697 10.503 5.493 c 0.72 -0.178 0.912 -1.116 0.318 -1.559 l -9.921 -6.665 l -11.94 -0.537 c -0.741 0.003 -1.144 0.872 -0.671 1.443 C 46.856 37.614 51.371 39.209 55.359 35.57 z" style="stroke: none; stroke-width: 1; stroke-dasharray: none; stroke-linecap: butt; stroke-linejoin: miter; stroke-miterlimit: 10; fill: rgb(237,237,255); fill-rule: nonzero; opacity: 1;" transform=" matrix(1 0 0 1 0 0) " stroke-linecap="round" />
	<circle cx="47.69" cy="4.890000000000001" r="3.12" style="stroke: none; stroke-width: 1; stroke-dasharray: none; stroke-linecap: butt; stroke-linejoin: miter; stroke-miterlimit: 10; fill: rgb(245,249,255); fill-rule: nonzero; opacity: 1;" transform="  matrix(1 0 0 1 0 0) "/>
	<path d="M 58.031 26.584 c 0.209 1.338 -2.066 0.425 -4.634 0.827 c -2.568 0.402 -4.456 1.966 -4.665 0.628 c -0.209 -1.338 1.703 -2.748 4.27 -3.15 C 55.571 24.488 57.822 25.246 58.031 26.584 z" style="stroke: none; stroke-width: 1; stroke-dasharray: none; stroke-linecap: butt; stroke-linejoin: miter; stroke-miterlimit: 10; fill: rgb(245,249,255); fill-rule: nonzero; opacity: 1;" transform=" matrix(1 0 0 1 0 0) " stroke-linecap="round" />
	<path d="M 59.322 27.009 c -0.963 0.951 1.409 1.57 3.235 3.42 c 1.826 1.849 2.415 4.229 3.378 3.278 c 0.963 -0.951 0.264 -3.222 -1.562 -5.071 C 62.547 26.786 60.285 26.058 59.322 27.009 z" style="stroke: none; stroke-width: 1; stroke-dasharray: none; stroke-linecap: butt; stroke-linejoin: miter; stroke-miterlimit: 10; fill: rgb(245,249,255); fill-rule: nonzero; opacity: 1;" transform=" matrix(1 0 0 1 0 0) " stroke-linecap="round" />
	<path d="M 57.761 34.625 c -0.377 1.144 -1.527 1.793 -2.569 1.45 c -1.042 -0.343 -1.581 -1.549 -1.204 -2.693 c 0.377 -1.144 1.911 -2.958 2.952 -2.615 C 57.983 31.111 58.138 33.481 57.761 34.625 z" style="stroke: none; stroke-width: 1; stroke-dasharray: none; stroke-linecap: butt; stroke-linejoin: miter; stroke-miterlimit: 10; fill: rgb(247,172,139); fill-rule: nonzero; opacity: 1;" transform=" matrix(1 0 0 1 0 0) " stroke-linecap="round" />
	<path d="M 51.548 29.68 c -0.015 -0.135 0 -0.276 0.038 -0.41 c 0.043 -0.125 0.108 -0.256 0.189 -0.366 c 0.165 -0.218 0.388 -0.386 0.625 -0.501 c 0.477 -0.225 1 -0.255 1.475 -0.138 c 0.474 0.119 0.919 0.389 1.235 0.805 c 0.155 0.21 0.275 0.458 0.323 0.725 c 0.023 0.133 0.022 0.278 0.005 0.408 c -0.025 0.136 -0.073 0.269 -0.146 0.383 l -0.021 0.033 c -0.015 0.024 -0.047 0.031 -0.07 0.016 c -0.009 -0.006 -0.016 -0.014 -0.02 -0.023 c -0.034 -0.081 -0.062 -0.164 -0.1 -0.241 c -0.05 -0.072 -0.089 -0.15 -0.145 -0.216 c -0.108 -0.136 -0.234 -0.258 -0.375 -0.362 c -0.284 -0.206 -0.616 -0.347 -0.959 -0.426 c -0.341 -0.088 -0.7 -0.12 -1.046 -0.067 c -0.173 0.027 -0.34 0.078 -0.497 0.151 c -0.08 0.033 -0.149 0.086 -0.226 0.128 c -0.068 0.052 -0.129 0.115 -0.196 0.172 c -0.021 0.018 -0.053 0.016 -0.072 -0.005 c -0.007 -0.008 -0.011 -0.018 -0.012 -0.028 L 51.548 29.68 z" style="stroke: none; stroke-width: 1; stroke-dasharray: none; stroke-linecap: butt; stroke-linejoin: miter; stroke-miterlimit: 10; fill: rgb(34,34,34); fill-rule: nonzero; opacity: 1;" transform=" matrix(1 0 0 1 0 0) " stroke-linecap="round" />
	<path d="M 58.385 31.922 c 0.023 -0.134 0.077 -0.265 0.151 -0.383 c 0.076 -0.108 0.175 -0.216 0.284 -0.298 c 0.22 -0.163 0.481 -0.262 0.74 -0.306 c 0.521 -0.083 1.032 0.035 1.454 0.28 c 0.421 0.247 0.773 0.631 0.96 1.119 c 0.09 0.245 0.135 0.516 0.107 0.786 c -0.015 0.134 -0.056 0.273 -0.11 0.393 c -0.062 0.124 -0.146 0.238 -0.247 0.327 l -0.029 0.026 c -0.021 0.019 -0.053 0.016 -0.072 -0.005 c -0.007 -0.008 -0.011 -0.018 -0.012 -0.028 c -0.01 -0.088 -0.013 -0.175 -0.028 -0.26 c -0.028 -0.083 -0.043 -0.169 -0.079 -0.248 c -0.065 -0.161 -0.152 -0.313 -0.259 -0.452 c -0.215 -0.277 -0.494 -0.506 -0.801 -0.678 c -0.302 -0.18 -0.638 -0.311 -0.986 -0.357 c -0.174 -0.023 -0.348 -0.021 -0.52 0.006 c -0.086 0.01 -0.167 0.041 -0.253 0.059 c -0.08 0.031 -0.156 0.074 -0.236 0.111 c -0.026 0.012 -0.056 0 -0.067 -0.025 c -0.004 -0.01 -0.006 -0.02 -0.004 -0.03 L 58.385 31.922 z" style="stroke: none; stroke-width: 1; stroke-dasharray: none; stroke-linecap: butt; stroke-linejoin: miter; stroke-miterlimit: 10; fill: rgb(34,34,34); fill-rule: nonzero; opacity: 1;" transform=" matrix(1 0 0 1 0 0) " stroke-linecap="round" />
	<path d="M 54.457 78.372 h -1.343 c -0.731 0 -1.326 -0.595 -1.326 -1.326 v -0.567 c 0 -0.731 0.595 -1.326 1.326 -1.326 h 1.343 c 0.731 0 1.326 0.595 1.326 1.326 v 0.567 C 55.783 77.777 55.188 78.372 54.457 78.372 z M 53.115 75.788 c -0.381 0 -0.691 0.31 -0.691 0.691 v 0.567 c 0 0.381 0.31 0.691 0.691 0.691 h 1.343 c 0.381 0 0.691 -0.31 0.691 -0.691 v -0.567 c 0 -0.381 -0.31 -0.691 -0.691 -0.691 H 53.115 z" style="stroke: none; stroke-width: 1; stroke-dasharray: none; stroke-linecap: butt; stroke-linejoin: miter; stroke-miterlimit: 10; fill: rgb(239,167,51); fill-rule: nonzero; opacity: 1;" transform=" matrix(1 0 0 1 0 0) " stroke-linecap="round" />
	<path d="M 53.806 76.252 c -1.677 -0.011 -3.309 -0.093 -4.868 -0.292 v 1.145 c 1.559 0.178 3.189 0.247 4.868 0.256 V 76.252 z" style="stroke: none; stroke-width: 1; stroke-dasharray: none; stroke-linecap: butt; stroke-linejoin: miter; stroke-miterlimit: 10; fill: rgb(34,34,34); fill-rule: nonzero; opacity: 1;" transform=" matrix(1 0 0 1 0 0) " stroke-linecap="round" />
	<rect x="58.68" y="41.4" rx="0" ry="0" width="14.9" height="4.43" style="stroke: none; stroke-width: 1; stroke-dasharray: none; stroke-linecap: butt; stroke-linejoin: miter; stroke-miterlimit: 10; fill: rgb(206,174,138); fill-rule: nonzero; opacity: 1;" transform=" matrix(1 0 0 1 0 0) "/>
	<path d="M 78.997 83.595 H 52.705 c 2.718 -5.46 2.12 -21.868 1.691 -37.714 h 26.292 C 80.697 61.224 80.733 76.698 78.997 83.595 z" style="stroke: none; stroke-width: 1; stroke-dasharray: none; stroke-linecap: butt; stroke-linejoin: miter; stroke-miterlimit: 10; fill: rgb(182,152,118); fill-rule: nonzero; opacity: 1;" transform=" matrix(1 0 0 1 0 0) " stroke-linecap="round" />
	<circle cx="59.056" cy="46.036" r="4.656" style="stroke: none; stroke-width: 1; stroke-dasharray: none; stroke-linecap: butt; stroke-linejoin: miter; stroke-miterlimit: 10; fill: rgb(182,152,118); fill-rule: nonzero; opacity: 1;" transform="  matrix(1 0 0 1 0 0) "/>
	<circle cx="85.346" cy="46.036" r="4.656" style="stroke: none; stroke-width: 1; stroke-dasharray: none; stroke-linecap: butt; stroke-linejoin: miter; stroke-miterlimit: 10; fill: rgb(206,174,138); fill-rule: nonzero; opacity: 1;" transform="  matrix(1 0 0 1 0 0) "/>
	<rect x="63.71" y="41.4" rx="0" ry="0" width="21.64" height="16.53" style="stroke: none; stroke-width: 1; stroke-dasharray: none; stroke-linecap: butt; stroke-linejoin: miter; stroke-miterlimit: 10; fill: rgb(206,174,138); fill-rule: nonzero; opacity: 1;" transform=" matrix(1 0 0 1 0 0) "/>
	<rect x="80.69" y="45.83" rx="0" ry="0" width="9.31" height="12.12" style="stroke: none; stroke-width: 1; stroke-dasharray: none; stroke-linecap: butt; stroke-linejoin: miter; stroke-miterlimit: 10; fill: rgb(206,174,138); fill-rule: nonzero; opacity: 1;" transform=" matrix(1 0 0 1 0 0) "/>
	<path d="M 66.807 54.69 c 1.688 -0.218 3.376 -0.295 5.064 -0.327 c 0.844 -0.011 1.688 0.017 2.532 0.042 c 0.422 0.013 0.844 0.025 1.266 0.048 c 0.422 0.021 0.844 0.058 1.266 0.086 c 0.844 0.064 1.688 0.098 2.532 0.076 c 0.844 -0.02 1.688 -0.129 2.532 -0.173 c 0.422 -0.022 0.844 -0.027 1.266 -0.019 c 0.422 0.004 0.844 0.02 1.266 0.039 c 0.844 0.042 1.688 0.099 2.532 0.228 v 0.068 c -0.844 0.129 -1.688 0.186 -2.532 0.228 c -0.422 0.019 -0.844 0.035 -1.266 0.039 c -0.422 0.008 -0.844 0.003 -1.266 -0.019 c -0.844 -0.044 -1.688 -0.153 -2.532 -0.173 c -0.844 -0.022 -1.688 0.012 -2.532 0.076 c -0.422 0.028 -0.844 0.065 -1.266 0.086 c -0.422 0.023 -0.844 0.035 -1.266 0.048 c -0.844 0.025 -1.688 0.052 -2.532 0.042 c -1.688 -0.032 -3.376 -0.11 -5.064 -0.327 V 54.69 z" style="stroke: none; stroke-width: 1; stroke-dasharray: none; stroke-linecap: butt; stroke-linejoin: miter; stroke-miterlimit: 10; fill: rgb(152,125,95); fill-rule: nonzero; opacity: 1;" transform=" matrix(1 0 0 1 0 0) " stroke-linecap="round" />
	<path d="M 66.807 51.307 c 0.844 -0.129 1.688 -0.186 2.532 -0.228 c 0.422 -0.019 0.844 -0.035 1.266 -0.039 c 0.422 -0.008 0.844 -0.003 1.266 0.019 c 0.844 0.044 1.688 0.153 2.532 0.173 c 0.844 0.022 1.688 -0.012 2.532 -0.076 c 0.422 -0.028 0.844 -0.065 1.266 -0.086 c 0.422 -0.023 0.844 -0.035 1.266 -0.048 c 0.844 -0.025 1.688 -0.052 2.532 -0.042 c 1.688 0.032 3.376 0.11 5.064 0.327 v 0.068 c -1.688 0.218 -3.376 0.295 -5.064 0.327 c -0.844 0.011 -1.688 -0.017 -2.532 -0.042 c -0.422 -0.013 -0.844 -0.025 -1.266 -0.048 c -0.422 -0.021 -0.844 -0.058 -1.266 -0.086 c -0.844 -0.064 -1.688 -0.098 -2.532 -0.076 c -0.844 0.02 -1.688 0.129 -2.532 0.173 c -0.422 0.022 -0.844 0.027 -1.266 0.019 c -0.422 -0.004 -0.844 -0.02 -1.266 -0.039 c -0.844 -0.042 -1.688 -0.099 -2.532 -0.228 V 51.307 z" style="stroke: none; stroke-width: 1; stroke-dasharray: none; stroke-linecap: butt; stroke-linejoin: miter; stroke-miterlimit: 10; fill: rgb(152,125,95); fill-rule: nonzero; opacity: 1;" transform=" matrix(1 0 0 1 0 0) " stroke-linecap="round" />
	<path d="M 66.807 47.925 c 1.688 -0.218 3.376 -0.295 5.064 -0.327 c 0.844 -0.011 1.688 0.017 2.532 0.042 c 0.422 0.013 0.844 0.025 1.266 0.048 c 0.422 0.021 0.844 0.058 1.266 0.086 c 0.844 0.064 1.688 0.098 2.532 0.076 c 0.844 -0.02 1.688 -0.129 2.532 -0.173 c 0.422 -0.022 0.844 -0.027 1.266 -0.019 c 0.422 0.004 0.844 0.02 1.266 0.039 c 0.844 0.042 1.688 0.099 2.532 0.228 v 0.068 c -0.844 0.129 -1.688 0.186 -2.532 0.228 c -0.422 0.019 -0.844 0.035 -1.266 0.039 c -0.422 0.008 -0.844 0.003 -1.266 -0.019 c -0.844 -0.044 -1.688 -0.153 -2.532 -0.173 c -0.844 -0.022 -1.688 0.012 -2.532 0.076 c -0.422 0.028 -0.844 0.065 -1.266 0.086 c -0.422 0.023 -0.844 0.035 -1.266 0.048 c -0.844 0.025 -1.688 0.052 -2.532 0.042 c -1.688 -0.032 -3.376 -0.11 -5.064 -0.327 V 47.925 z" style="stroke: none; stroke-width: 1; stroke-dasharray: none; stroke-linecap: butt; stroke-linejoin: miter; stroke-miterlimit: 10; fill: rgb(152,125,95); fill-rule: nonzero; opacity: 1;" transform=" matrix(1 0 0 1 0 0) " stroke-linecap="round" />
	<path d="M 66.3 44.542 c 0.844 -0.129 1.688 -0.186 2.532 -0.228 c 0.422 -0.019 0.844 -0.035 1.266 -0.039 c 0.422 -0.008 0.844 -0.003 1.266 0.019 c 0.844 0.044 1.688 0.153 2.532 0.173 c 0.844 0.022 1.688 -0.012 2.532 -0.076 c 0.422 -0.028 0.844 -0.065 1.266 -0.086 c 0.422 -0.023 0.844 -0.035 1.266 -0.048 c 0.844 -0.025 1.688 -0.052 2.532 -0.042 c 1.688 0.032 3.376 0.11 5.064 0.327 v 0.068 c -1.688 0.218 -3.376 0.295 -5.064 0.327 c -0.844 0.011 -1.688 -0.017 -2.532 -0.042 c -0.422 -0.013 -0.844 -0.025 -1.266 -0.048 c -0.422 -0.021 -0.844 -0.058 -1.266 -0.086 c -0.844 -0.064 -1.688 -0.098 -2.532 -0.076 c -0.844 0.02 -1.688 0.129 -2.532 0.173 c -0.422 0.022 -0.844 0.027 -1.266 0.019 c -0.422 -0.004 -0.844 -0.02 -1.266 -0.039 c -0.844 -0.042 -1.688 -0.099 -2.532 -0.228 V 44.542 z" style="stroke: none; stroke-width: 1; stroke-dasharray: none; stroke-linecap: butt; stroke-linejoin: miter; stroke-miterlimit: 10; fill: rgb(152,125,95); fill-rule: nonzero; opacity: 1;" transform=" matrix(1 0 0 1 0 0) " stroke-linecap="round" />
	<path d="M 80.632 67.315 l 3.234 0.071 c 2.136 0 2.787 -5.133 1.201 -7.144 l -4.178 -0.11 c -1.983 -0.071 -3.649 1.479 -3.72 3.463 v 0 C 77.098 65.579 78.648 67.244 80.632 67.315 z" style="stroke: none; stroke-width: 1; stroke-dasharray: none; stroke-linecap: butt; stroke-linejoin: miter; stroke-miterlimit: 10; fill: rgb(34,34,34); fill-rule: nonzero; opacity: 1;" transform=" matrix(1 0 0 1 0 0) " stroke-linecap="round" />
	<path d="M 82.224 58.675 c -0.499 -0.275 -1.073 -0.282 -1.559 -0.072 l 0.008 3.279 c 0.068 0.052 0.852 0.573 0.929 0.615 l 2.327 1.162 l 1.137 -3.417 L 82.224 58.675 z" style="stroke: none; stroke-width: 1; stroke-dasharray: none; stroke-linecap: butt; stroke-linejoin: miter; stroke-miterlimit: 10; fill: rgb(34,34,34); fill-rule: nonzero; opacity: 1;" transform=" matrix(1 0 0 1 0 0) " stroke-linecap="round" />
</g>
</svg>